<mxfile host="app.diagrams.net" modified="2021-11-03T05:58:03.976Z" agent="5.0 (Windows NT 10.0; WOW64) AppleWebKit/537.36 (KHTML, like Gecko) Chrome/92.0.4515.159 Safari/537.36" etag="yRVB3TLvWWnsOC8_hyF7" version="15.6.5" type="github" pages="2">
  <diagram id="C5RBs43oDa-KdzZeNtuy" name="Page-1">
    <mxGraphModel dx="1038" dy="1684" grid="1" gridSize="10" guides="1" tooltips="1" connect="1" arrows="1" fold="1" page="1" pageScale="1" pageWidth="827" pageHeight="1169" math="0" shadow="0">
      <root>
        <mxCell id="WIyWlLk6GJQsqaUBKTNV-0" />
        <mxCell id="WIyWlLk6GJQsqaUBKTNV-1" parent="WIyWlLk6GJQsqaUBKTNV-0" />
        <mxCell id="WIyWlLk6GJQsqaUBKTNV-2" value="" style="rounded=0;html=1;jettySize=auto;orthogonalLoop=1;fontSize=11;endArrow=block;endFill=0;endSize=8;strokeWidth=1;shadow=0;labelBackgroundColor=none;edgeStyle=orthogonalEdgeStyle;" parent="WIyWlLk6GJQsqaUBKTNV-1" source="WIyWlLk6GJQsqaUBKTNV-3" target="WIyWlLk6GJQsqaUBKTNV-6" edge="1">
          <mxGeometry relative="1" as="geometry" />
        </mxCell>
        <mxCell id="WIyWlLk6GJQsqaUBKTNV-3" value="用户答案" style="rounded=0;whiteSpace=wrap;html=1;fontSize=12;glass=0;strokeWidth=1;shadow=0;fillColor=default;strokeColor=default;fontColor=default;" parent="WIyWlLk6GJQsqaUBKTNV-1" vertex="1">
          <mxGeometry x="160" y="80" width="120" height="40" as="geometry" />
        </mxCell>
        <mxCell id="WIyWlLk6GJQsqaUBKTNV-4" value="Yes" style="rounded=0;html=1;jettySize=auto;orthogonalLoop=1;fontSize=11;endArrow=block;endFill=0;endSize=8;strokeWidth=1;shadow=0;labelBackgroundColor=none;edgeStyle=orthogonalEdgeStyle;" parent="WIyWlLk6GJQsqaUBKTNV-1" source="WIyWlLk6GJQsqaUBKTNV-6" target="WIyWlLk6GJQsqaUBKTNV-10" edge="1">
          <mxGeometry y="20" relative="1" as="geometry">
            <mxPoint as="offset" />
          </mxGeometry>
        </mxCell>
        <mxCell id="WIyWlLk6GJQsqaUBKTNV-5" value="No" style="edgeStyle=orthogonalEdgeStyle;rounded=0;html=1;jettySize=auto;orthogonalLoop=1;fontSize=11;endArrow=block;endFill=0;endSize=8;strokeWidth=1;shadow=0;labelBackgroundColor=none;" parent="WIyWlLk6GJQsqaUBKTNV-1" source="WIyWlLk6GJQsqaUBKTNV-6" target="WIyWlLk6GJQsqaUBKTNV-7" edge="1">
          <mxGeometry y="10" relative="1" as="geometry">
            <mxPoint as="offset" />
          </mxGeometry>
        </mxCell>
        <mxCell id="WIyWlLk6GJQsqaUBKTNV-6" value="是否&lt;br&gt;校验通过" style="rhombus;whiteSpace=wrap;html=1;shadow=0;fontFamily=Helvetica;fontSize=12;align=center;strokeWidth=1;spacing=6;spacingTop=-4;" parent="WIyWlLk6GJQsqaUBKTNV-1" vertex="1">
          <mxGeometry x="170" y="170" width="100" height="80" as="geometry" />
        </mxCell>
        <mxCell id="zEAg0CnhmGN7PUrpGbZz-1" style="edgeStyle=orthogonalEdgeStyle;rounded=0;orthogonalLoop=1;jettySize=auto;html=1;entryX=1;entryY=0.5;entryDx=0;entryDy=0;strokeColor=default;labelBackgroundColor=default;fontColor=default;endArrow=block;endFill=0;" edge="1" parent="WIyWlLk6GJQsqaUBKTNV-1" source="WIyWlLk6GJQsqaUBKTNV-7" target="zEAg0CnhmGN7PUrpGbZz-9">
          <mxGeometry relative="1" as="geometry">
            <Array as="points">
              <mxPoint x="70" y="-10" />
            </Array>
          </mxGeometry>
        </mxCell>
        <mxCell id="WIyWlLk6GJQsqaUBKTNV-7" value="答案无效" style="rounded=0;whiteSpace=wrap;html=1;fontSize=12;glass=0;strokeWidth=1;shadow=0;fillColor=default;strokeColor=default;fontColor=default;" parent="WIyWlLk6GJQsqaUBKTNV-1" vertex="1">
          <mxGeometry x="10" y="190" width="120" height="40" as="geometry" />
        </mxCell>
        <mxCell id="WIyWlLk6GJQsqaUBKTNV-8" value="No" style="rounded=0;html=1;jettySize=auto;orthogonalLoop=1;fontSize=11;endArrow=block;endFill=0;endSize=8;strokeWidth=1;shadow=0;labelBackgroundColor=none;edgeStyle=orthogonalEdgeStyle;" parent="WIyWlLk6GJQsqaUBKTNV-1" source="WIyWlLk6GJQsqaUBKTNV-10" target="WIyWlLk6GJQsqaUBKTNV-11" edge="1">
          <mxGeometry x="0.3333" y="20" relative="1" as="geometry">
            <mxPoint as="offset" />
          </mxGeometry>
        </mxCell>
        <mxCell id="WIyWlLk6GJQsqaUBKTNV-9" value="Yes" style="edgeStyle=orthogonalEdgeStyle;rounded=0;html=1;jettySize=auto;orthogonalLoop=1;fontSize=11;endArrow=block;endFill=0;endSize=8;strokeWidth=1;shadow=0;labelBackgroundColor=none;strokeColor=default;fontColor=default;entryX=0.5;entryY=1;entryDx=0;entryDy=0;" parent="WIyWlLk6GJQsqaUBKTNV-1" source="WIyWlLk6GJQsqaUBKTNV-10" target="WIyWlLk6GJQsqaUBKTNV-7" edge="1">
          <mxGeometry x="-0.2381" y="10" relative="1" as="geometry">
            <mxPoint as="offset" />
            <mxPoint x="380" y="240" as="targetPoint" />
          </mxGeometry>
        </mxCell>
        <mxCell id="WIyWlLk6GJQsqaUBKTNV-10" value="是否超出&lt;br&gt;规定时间" style="rhombus;whiteSpace=wrap;html=1;shadow=0;fontFamily=Helvetica;fontSize=12;align=center;strokeWidth=1;spacing=6;spacingTop=-4;" parent="WIyWlLk6GJQsqaUBKTNV-1" vertex="1">
          <mxGeometry x="170" y="290" width="100" height="80" as="geometry" />
        </mxCell>
        <mxCell id="zEAg0CnhmGN7PUrpGbZz-5" value="" style="edgeStyle=orthogonalEdgeStyle;rounded=0;orthogonalLoop=1;jettySize=auto;html=1;labelBackgroundColor=default;fontColor=default;endArrow=block;endFill=0;strokeColor=default;" edge="1" parent="WIyWlLk6GJQsqaUBKTNV-1" source="WIyWlLk6GJQsqaUBKTNV-11" target="zEAg0CnhmGN7PUrpGbZz-4">
          <mxGeometry relative="1" as="geometry" />
        </mxCell>
        <mxCell id="WIyWlLk6GJQsqaUBKTNV-11" value="解析答案" style="rounded=0;whiteSpace=wrap;html=1;fontSize=12;glass=0;strokeWidth=1;shadow=0;fillColor=default;strokeColor=default;fontColor=default;" parent="WIyWlLk6GJQsqaUBKTNV-1" vertex="1">
          <mxGeometry x="340" y="310" width="120" height="40" as="geometry" />
        </mxCell>
        <mxCell id="zEAg0CnhmGN7PUrpGbZz-0" value="提交" style="text;html=1;align=center;verticalAlign=middle;resizable=0;points=[];autosize=1;strokeColor=none;fillColor=none;" vertex="1" parent="WIyWlLk6GJQsqaUBKTNV-1">
          <mxGeometry x="210" y="130" width="40" height="20" as="geometry" />
        </mxCell>
        <mxCell id="zEAg0CnhmGN7PUrpGbZz-2" value="提交无效" style="text;html=1;align=center;verticalAlign=middle;resizable=0;points=[];autosize=1;strokeColor=none;fillColor=none;fontColor=default;" vertex="1" parent="WIyWlLk6GJQsqaUBKTNV-1">
          <mxGeometry x="80" width="60" height="20" as="geometry" />
        </mxCell>
        <mxCell id="zEAg0CnhmGN7PUrpGbZz-7" value="" style="edgeStyle=orthogonalEdgeStyle;rounded=0;orthogonalLoop=1;jettySize=auto;html=1;labelBackgroundColor=default;fontColor=default;endArrow=block;endFill=0;strokeColor=default;" edge="1" parent="WIyWlLk6GJQsqaUBKTNV-1" source="zEAg0CnhmGN7PUrpGbZz-4" target="zEAg0CnhmGN7PUrpGbZz-6">
          <mxGeometry relative="1" as="geometry" />
        </mxCell>
        <mxCell id="zEAg0CnhmGN7PUrpGbZz-21" value="" style="edgeStyle=orthogonalEdgeStyle;rounded=0;orthogonalLoop=1;jettySize=auto;html=1;labelBackgroundColor=default;fontColor=default;endArrow=block;endFill=0;strokeColor=default;" edge="1" parent="WIyWlLk6GJQsqaUBKTNV-1" source="zEAg0CnhmGN7PUrpGbZz-4" target="zEAg0CnhmGN7PUrpGbZz-20">
          <mxGeometry relative="1" as="geometry" />
        </mxCell>
        <mxCell id="zEAg0CnhmGN7PUrpGbZz-4" value="是否&lt;br&gt;自动评分" style="rhombus;whiteSpace=wrap;html=1;rounded=0;shadow=0;strokeWidth=1;glass=0;fillColor=default;strokeColor=default;fontColor=default;" vertex="1" parent="WIyWlLk6GJQsqaUBKTNV-1">
          <mxGeometry x="520" y="290" width="80" height="80" as="geometry" />
        </mxCell>
        <mxCell id="zEAg0CnhmGN7PUrpGbZz-13" value="" style="edgeStyle=orthogonalEdgeStyle;rounded=0;orthogonalLoop=1;jettySize=auto;html=1;labelBackgroundColor=default;fontColor=default;endArrow=block;endFill=0;strokeColor=default;" edge="1" parent="WIyWlLk6GJQsqaUBKTNV-1" source="zEAg0CnhmGN7PUrpGbZz-6" target="zEAg0CnhmGN7PUrpGbZz-12">
          <mxGeometry relative="1" as="geometry" />
        </mxCell>
        <mxCell id="zEAg0CnhmGN7PUrpGbZz-6" value="开始自动评分" style="whiteSpace=wrap;html=1;rounded=0;shadow=0;strokeWidth=1;glass=0;fillColor=default;strokeColor=default;fontColor=default;" vertex="1" parent="WIyWlLk6GJQsqaUBKTNV-1">
          <mxGeometry x="500" y="420" width="120" height="40" as="geometry" />
        </mxCell>
        <mxCell id="zEAg0CnhmGN7PUrpGbZz-8" value="yes" style="text;html=1;align=center;verticalAlign=middle;resizable=0;points=[];autosize=1;strokeColor=none;fillColor=none;fontColor=default;" vertex="1" parent="WIyWlLk6GJQsqaUBKTNV-1">
          <mxGeometry x="560" y="370" width="30" height="20" as="geometry" />
        </mxCell>
        <mxCell id="zEAg0CnhmGN7PUrpGbZz-10" value="" style="edgeStyle=orthogonalEdgeStyle;rounded=0;orthogonalLoop=1;jettySize=auto;html=1;labelBackgroundColor=default;fontColor=default;endArrow=block;endFill=0;strokeColor=default;entryX=0.5;entryY=0;entryDx=0;entryDy=0;" edge="1" parent="WIyWlLk6GJQsqaUBKTNV-1" source="zEAg0CnhmGN7PUrpGbZz-9" target="WIyWlLk6GJQsqaUBKTNV-3">
          <mxGeometry relative="1" as="geometry" />
        </mxCell>
        <mxCell id="zEAg0CnhmGN7PUrpGbZz-9" value="用户" style="ellipse;whiteSpace=wrap;html=1;rounded=0;fontColor=default;strokeColor=default;fillColor=default;" vertex="1" parent="WIyWlLk6GJQsqaUBKTNV-1">
          <mxGeometry x="175" y="-40" width="90" height="60" as="geometry" />
        </mxCell>
        <mxCell id="zEAg0CnhmGN7PUrpGbZz-11" value="答案" style="text;html=1;align=center;verticalAlign=middle;resizable=0;points=[];autosize=1;strokeColor=none;fillColor=none;fontColor=default;" vertex="1" parent="WIyWlLk6GJQsqaUBKTNV-1">
          <mxGeometry x="210" y="30" width="40" height="20" as="geometry" />
        </mxCell>
        <mxCell id="zEAg0CnhmGN7PUrpGbZz-15" value="" style="edgeStyle=orthogonalEdgeStyle;rounded=0;orthogonalLoop=1;jettySize=auto;html=1;labelBackgroundColor=default;fontColor=default;endArrow=block;endFill=0;strokeColor=default;" edge="1" parent="WIyWlLk6GJQsqaUBKTNV-1" source="zEAg0CnhmGN7PUrpGbZz-12" target="zEAg0CnhmGN7PUrpGbZz-14">
          <mxGeometry relative="1" as="geometry" />
        </mxCell>
        <mxCell id="zEAg0CnhmGN7PUrpGbZz-18" value="" style="edgeStyle=orthogonalEdgeStyle;rounded=0;orthogonalLoop=1;jettySize=auto;html=1;labelBackgroundColor=default;fontColor=default;endArrow=block;endFill=0;strokeColor=default;" edge="1" parent="WIyWlLk6GJQsqaUBKTNV-1" source="zEAg0CnhmGN7PUrpGbZz-12" target="zEAg0CnhmGN7PUrpGbZz-17">
          <mxGeometry relative="1" as="geometry" />
        </mxCell>
        <mxCell id="zEAg0CnhmGN7PUrpGbZz-12" value="是否&lt;br&gt;选择题，&lt;br&gt;填空题" style="rhombus;whiteSpace=wrap;html=1;rounded=0;shadow=0;strokeWidth=1;glass=0;strokeColor=default;labelBackgroundColor=default;fontColor=default;fillColor=default;" vertex="1" parent="WIyWlLk6GJQsqaUBKTNV-1">
          <mxGeometry x="290" y="400" width="80" height="80" as="geometry" />
        </mxCell>
        <mxCell id="zEAg0CnhmGN7PUrpGbZz-26" value="" style="edgeStyle=orthogonalEdgeStyle;rounded=0;orthogonalLoop=1;jettySize=auto;html=1;labelBackgroundColor=default;fontColor=default;endArrow=block;endFill=0;strokeColor=default;" edge="1" parent="WIyWlLk6GJQsqaUBKTNV-1" source="zEAg0CnhmGN7PUrpGbZz-14" target="zEAg0CnhmGN7PUrpGbZz-25">
          <mxGeometry relative="1" as="geometry" />
        </mxCell>
        <mxCell id="zEAg0CnhmGN7PUrpGbZz-14" value="自动对比答案" style="whiteSpace=wrap;html=1;rounded=0;shadow=0;strokeWidth=1;glass=0;fillColor=default;strokeColor=default;fontColor=default;labelBackgroundColor=default;" vertex="1" parent="WIyWlLk6GJQsqaUBKTNV-1">
          <mxGeometry x="270" y="530" width="120" height="35" as="geometry" />
        </mxCell>
        <mxCell id="zEAg0CnhmGN7PUrpGbZz-16" value="yes" style="text;html=1;align=center;verticalAlign=middle;resizable=0;points=[];autosize=1;strokeColor=none;fillColor=none;fontColor=default;labelBackgroundColor=default;" vertex="1" parent="WIyWlLk6GJQsqaUBKTNV-1">
          <mxGeometry x="330" y="490" width="30" height="20" as="geometry" />
        </mxCell>
        <mxCell id="zEAg0CnhmGN7PUrpGbZz-28" value="" style="edgeStyle=orthogonalEdgeStyle;rounded=0;orthogonalLoop=1;jettySize=auto;html=1;labelBackgroundColor=default;fontColor=default;endArrow=block;endFill=0;strokeColor=default;" edge="1" parent="WIyWlLk6GJQsqaUBKTNV-1" source="zEAg0CnhmGN7PUrpGbZz-17" target="zEAg0CnhmGN7PUrpGbZz-27">
          <mxGeometry relative="1" as="geometry" />
        </mxCell>
        <mxCell id="zEAg0CnhmGN7PUrpGbZz-17" value="通过自然语言&lt;br&gt;处理答案逻辑" style="whiteSpace=wrap;html=1;rounded=0;shadow=0;strokeWidth=1;glass=0;fillColor=default;strokeColor=default;fontColor=default;labelBackgroundColor=default;" vertex="1" parent="WIyWlLk6GJQsqaUBKTNV-1">
          <mxGeometry x="90" y="420" width="120" height="40" as="geometry" />
        </mxCell>
        <mxCell id="zEAg0CnhmGN7PUrpGbZz-19" value="no" style="text;html=1;align=center;verticalAlign=middle;resizable=0;points=[];autosize=1;strokeColor=none;fillColor=none;fontColor=default;labelBackgroundColor=default;" vertex="1" parent="WIyWlLk6GJQsqaUBKTNV-1">
          <mxGeometry x="560" y="250" width="30" height="20" as="geometry" />
        </mxCell>
        <mxCell id="zEAg0CnhmGN7PUrpGbZz-23" style="edgeStyle=orthogonalEdgeStyle;rounded=0;orthogonalLoop=1;jettySize=auto;html=1;entryX=1;entryY=0.5;entryDx=0;entryDy=0;labelBackgroundColor=default;fontColor=default;endArrow=block;endFill=0;strokeColor=default;" edge="1" parent="WIyWlLk6GJQsqaUBKTNV-1" source="zEAg0CnhmGN7PUrpGbZz-20" target="zEAg0CnhmGN7PUrpGbZz-9">
          <mxGeometry relative="1" as="geometry">
            <Array as="points">
              <mxPoint x="560" y="-10" />
            </Array>
          </mxGeometry>
        </mxCell>
        <mxCell id="zEAg0CnhmGN7PUrpGbZz-20" value="答案保存，&lt;br&gt;等待老师批改" style="whiteSpace=wrap;html=1;rounded=0;shadow=0;strokeWidth=1;glass=0;fillColor=default;strokeColor=default;fontColor=default;" vertex="1" parent="WIyWlLk6GJQsqaUBKTNV-1">
          <mxGeometry x="500" y="160" width="120" height="40" as="geometry" />
        </mxCell>
        <mxCell id="zEAg0CnhmGN7PUrpGbZz-22" value="no" style="text;html=1;align=center;verticalAlign=middle;resizable=0;points=[];autosize=1;strokeColor=none;fillColor=none;fontColor=default;" vertex="1" parent="WIyWlLk6GJQsqaUBKTNV-1">
          <mxGeometry x="235" y="420" width="30" height="20" as="geometry" />
        </mxCell>
        <mxCell id="zEAg0CnhmGN7PUrpGbZz-24" value="等待老师修改" style="text;html=1;align=center;verticalAlign=middle;resizable=0;points=[];autosize=1;strokeColor=none;fillColor=none;fontColor=default;" vertex="1" parent="WIyWlLk6GJQsqaUBKTNV-1">
          <mxGeometry x="280" y="-40" width="90" height="20" as="geometry" />
        </mxCell>
        <mxCell id="zEAg0CnhmGN7PUrpGbZz-33" value="" style="edgeStyle=orthogonalEdgeStyle;rounded=0;orthogonalLoop=1;jettySize=auto;html=1;labelBackgroundColor=default;fontColor=default;endArrow=block;endFill=0;strokeColor=default;" edge="1" parent="WIyWlLk6GJQsqaUBKTNV-1" source="zEAg0CnhmGN7PUrpGbZz-25" target="zEAg0CnhmGN7PUrpGbZz-32">
          <mxGeometry relative="1" as="geometry" />
        </mxCell>
        <mxCell id="zEAg0CnhmGN7PUrpGbZz-25" value="分数统计" style="whiteSpace=wrap;html=1;rounded=0;shadow=0;strokeWidth=1;glass=0;fillColor=default;strokeColor=default;fontColor=default;labelBackgroundColor=default;" vertex="1" parent="WIyWlLk6GJQsqaUBKTNV-1">
          <mxGeometry x="185" y="650" width="120" height="35" as="geometry" />
        </mxCell>
        <mxCell id="zEAg0CnhmGN7PUrpGbZz-31" style="edgeStyle=orthogonalEdgeStyle;rounded=0;orthogonalLoop=1;jettySize=auto;html=1;labelBackgroundColor=default;fontColor=default;endArrow=block;endFill=0;strokeColor=default;" edge="1" parent="WIyWlLk6GJQsqaUBKTNV-1" source="zEAg0CnhmGN7PUrpGbZz-27" target="zEAg0CnhmGN7PUrpGbZz-25">
          <mxGeometry relative="1" as="geometry" />
        </mxCell>
        <mxCell id="zEAg0CnhmGN7PUrpGbZz-27" value="得出该内容分数" style="whiteSpace=wrap;html=1;rounded=0;shadow=0;strokeWidth=1;glass=0;fillColor=default;strokeColor=default;fontColor=default;labelBackgroundColor=default;" vertex="1" parent="WIyWlLk6GJQsqaUBKTNV-1">
          <mxGeometry x="90" y="530" width="120" height="40" as="geometry" />
        </mxCell>
        <mxCell id="zEAg0CnhmGN7PUrpGbZz-29" value="进行评分" style="text;html=1;align=center;verticalAlign=middle;resizable=0;points=[];autosize=1;strokeColor=none;fillColor=none;fontColor=default;labelBackgroundColor=default;" vertex="1" parent="WIyWlLk6GJQsqaUBKTNV-1">
          <mxGeometry x="150" y="480" width="60" height="20" as="geometry" />
        </mxCell>
        <mxCell id="zEAg0CnhmGN7PUrpGbZz-30" value="j检查类型" style="text;html=1;align=center;verticalAlign=middle;resizable=0;points=[];autosize=1;strokeColor=none;fillColor=none;fontColor=default;" vertex="1" parent="WIyWlLk6GJQsqaUBKTNV-1">
          <mxGeometry x="400" y="420" width="70" height="20" as="geometry" />
        </mxCell>
        <mxCell id="zEAg0CnhmGN7PUrpGbZz-32" value="评分结束" style="ellipse;whiteSpace=wrap;html=1;rounded=0;shadow=0;strokeWidth=1;glass=0;labelBackgroundColor=rgba(255, 255, 255, 1);" vertex="1" parent="WIyWlLk6GJQsqaUBKTNV-1">
          <mxGeometry x="185" y="750" width="120" height="60" as="geometry" />
        </mxCell>
      </root>
    </mxGraphModel>
  </diagram>
  <diagram id="ZNOuOz2WBxlul3sUpB5e" name="第 2 页">
    <mxGraphModel dx="1038" dy="515" grid="1" gridSize="10" guides="1" tooltips="1" connect="1" arrows="1" fold="1" page="1" pageScale="1" pageWidth="827" pageHeight="1169" math="0" shadow="0">
      <root>
        <mxCell id="m634XsXhEQVuQhrbfc_O-0" />
        <mxCell id="m634XsXhEQVuQhrbfc_O-1" parent="m634XsXhEQVuQhrbfc_O-0" />
        <mxCell id="m634XsXhEQVuQhrbfc_O-4" value="" style="edgeStyle=orthogonalEdgeStyle;rounded=0;orthogonalLoop=1;jettySize=auto;html=1;labelBackgroundColor=default;fontColor=default;endArrow=block;endFill=0;strokeColor=default;" edge="1" parent="m634XsXhEQVuQhrbfc_O-1" source="m634XsXhEQVuQhrbfc_O-2" target="m634XsXhEQVuQhrbfc_O-3">
          <mxGeometry relative="1" as="geometry">
            <Array as="points">
              <mxPoint x="420" y="130" />
              <mxPoint x="140" y="130" />
            </Array>
          </mxGeometry>
        </mxCell>
        <mxCell id="m634XsXhEQVuQhrbfc_O-6" value="" style="edgeStyle=orthogonalEdgeStyle;rounded=0;orthogonalLoop=1;jettySize=auto;html=1;labelBackgroundColor=default;fontColor=default;endArrow=block;endFill=0;strokeColor=default;" edge="1" parent="m634XsXhEQVuQhrbfc_O-1" source="m634XsXhEQVuQhrbfc_O-2" target="m634XsXhEQVuQhrbfc_O-5">
          <mxGeometry relative="1" as="geometry">
            <Array as="points">
              <mxPoint x="420" y="130" />
              <mxPoint x="700" y="130" />
            </Array>
          </mxGeometry>
        </mxCell>
        <mxCell id="m634XsXhEQVuQhrbfc_O-8" value="" style="edgeStyle=orthogonalEdgeStyle;rounded=0;orthogonalLoop=1;jettySize=auto;html=1;labelBackgroundColor=default;fontColor=default;endArrow=block;endFill=0;strokeColor=default;" edge="1" parent="m634XsXhEQVuQhrbfc_O-1" source="m634XsXhEQVuQhrbfc_O-2" target="m634XsXhEQVuQhrbfc_O-7">
          <mxGeometry relative="1" as="geometry" />
        </mxCell>
        <mxCell id="m634XsXhEQVuQhrbfc_O-2" value="工资系统" style="rounded=0;whiteSpace=wrap;html=1;labelBackgroundColor=default;fontColor=default;strokeColor=default;fillColor=default;" vertex="1" parent="m634XsXhEQVuQhrbfc_O-1">
          <mxGeometry x="360" y="50" width="120" height="40" as="geometry" />
        </mxCell>
        <mxCell id="m634XsXhEQVuQhrbfc_O-10" value="" style="edgeStyle=orthogonalEdgeStyle;rounded=0;orthogonalLoop=1;jettySize=auto;html=1;labelBackgroundColor=default;fontColor=default;endArrow=block;endFill=0;strokeColor=default;" edge="1" parent="m634XsXhEQVuQhrbfc_O-1" source="m634XsXhEQVuQhrbfc_O-3" target="m634XsXhEQVuQhrbfc_O-9">
          <mxGeometry relative="1" as="geometry" />
        </mxCell>
        <mxCell id="m634XsXhEQVuQhrbfc_O-12" value="" style="edgeStyle=orthogonalEdgeStyle;rounded=0;orthogonalLoop=1;jettySize=auto;html=1;labelBackgroundColor=default;fontColor=default;endArrow=block;endFill=0;strokeColor=default;" edge="1" parent="m634XsXhEQVuQhrbfc_O-1" source="m634XsXhEQVuQhrbfc_O-3" target="m634XsXhEQVuQhrbfc_O-11">
          <mxGeometry relative="1" as="geometry" />
        </mxCell>
        <mxCell id="m634XsXhEQVuQhrbfc_O-3" value="输入1.0" style="rounded=0;whiteSpace=wrap;html=1;labelBackgroundColor=default;fontColor=default;strokeColor=default;fillColor=default;" vertex="1" parent="m634XsXhEQVuQhrbfc_O-1">
          <mxGeometry x="80" y="170" width="120" height="40" as="geometry" />
        </mxCell>
        <mxCell id="m634XsXhEQVuQhrbfc_O-20" value="" style="edgeStyle=orthogonalEdgeStyle;rounded=0;orthogonalLoop=1;jettySize=auto;html=1;labelBackgroundColor=default;fontColor=default;endArrow=block;endFill=0;strokeColor=default;" edge="1" parent="m634XsXhEQVuQhrbfc_O-1" source="m634XsXhEQVuQhrbfc_O-5" target="m634XsXhEQVuQhrbfc_O-19">
          <mxGeometry relative="1" as="geometry" />
        </mxCell>
        <mxCell id="m634XsXhEQVuQhrbfc_O-22" value="" style="edgeStyle=orthogonalEdgeStyle;rounded=0;orthogonalLoop=1;jettySize=auto;html=1;labelBackgroundColor=default;fontColor=default;endArrow=block;endFill=0;strokeColor=default;" edge="1" parent="m634XsXhEQVuQhrbfc_O-1" source="m634XsXhEQVuQhrbfc_O-5" target="m634XsXhEQVuQhrbfc_O-21">
          <mxGeometry relative="1" as="geometry" />
        </mxCell>
        <mxCell id="m634XsXhEQVuQhrbfc_O-5" value="输出3.0" style="rounded=0;whiteSpace=wrap;html=1;labelBackgroundColor=default;fontColor=default;strokeColor=default;fillColor=default;" vertex="1" parent="m634XsXhEQVuQhrbfc_O-1">
          <mxGeometry x="640" y="170" width="120" height="40" as="geometry" />
        </mxCell>
        <mxCell id="m634XsXhEQVuQhrbfc_O-14" value="" style="edgeStyle=orthogonalEdgeStyle;rounded=0;orthogonalLoop=1;jettySize=auto;html=1;labelBackgroundColor=default;fontColor=default;endArrow=block;endFill=0;strokeColor=default;" edge="1" parent="m634XsXhEQVuQhrbfc_O-1" source="m634XsXhEQVuQhrbfc_O-7" target="m634XsXhEQVuQhrbfc_O-13">
          <mxGeometry relative="1" as="geometry" />
        </mxCell>
        <mxCell id="m634XsXhEQVuQhrbfc_O-16" value="" style="edgeStyle=orthogonalEdgeStyle;rounded=0;orthogonalLoop=1;jettySize=auto;html=1;labelBackgroundColor=default;fontColor=default;endArrow=block;endFill=0;strokeColor=default;" edge="1" parent="m634XsXhEQVuQhrbfc_O-1" source="m634XsXhEQVuQhrbfc_O-7" target="m634XsXhEQVuQhrbfc_O-15">
          <mxGeometry relative="1" as="geometry" />
        </mxCell>
        <mxCell id="m634XsXhEQVuQhrbfc_O-18" value="" style="edgeStyle=orthogonalEdgeStyle;rounded=0;orthogonalLoop=1;jettySize=auto;html=1;labelBackgroundColor=default;fontColor=default;endArrow=block;endFill=0;strokeColor=default;" edge="1" parent="m634XsXhEQVuQhrbfc_O-1" source="m634XsXhEQVuQhrbfc_O-7" target="m634XsXhEQVuQhrbfc_O-17">
          <mxGeometry relative="1" as="geometry">
            <Array as="points">
              <mxPoint x="420" y="260" />
              <mxPoint x="530" y="260" />
            </Array>
          </mxGeometry>
        </mxCell>
        <mxCell id="m634XsXhEQVuQhrbfc_O-7" value="计算工资2.0" style="rounded=0;whiteSpace=wrap;html=1;labelBackgroundColor=default;fontColor=default;strokeColor=default;fillColor=default;" vertex="1" parent="m634XsXhEQVuQhrbfc_O-1">
          <mxGeometry x="360" y="170" width="120" height="40" as="geometry" />
        </mxCell>
        <mxCell id="m634XsXhEQVuQhrbfc_O-9" value="读取数据1.1" style="rounded=0;whiteSpace=wrap;html=1;labelBackgroundColor=default;fontColor=default;strokeColor=default;fillColor=default;" vertex="1" parent="m634XsXhEQVuQhrbfc_O-1">
          <mxGeometry x="40" y="300" width="80" height="30" as="geometry" />
        </mxCell>
        <mxCell id="m634XsXhEQVuQhrbfc_O-11" value="过滤1.2" style="rounded=0;whiteSpace=wrap;html=1;labelBackgroundColor=default;fontColor=default;strokeColor=default;fillColor=default;" vertex="1" parent="m634XsXhEQVuQhrbfc_O-1">
          <mxGeometry x="150" y="300" width="90" height="30" as="geometry" />
        </mxCell>
        <mxCell id="m634XsXhEQVuQhrbfc_O-13" value="工龄2.1" style="rounded=0;whiteSpace=wrap;html=1;labelBackgroundColor=default;fontColor=default;strokeColor=default;fillColor=default;" vertex="1" parent="m634XsXhEQVuQhrbfc_O-1">
          <mxGeometry x="290" y="302.5" width="70" height="23.75" as="geometry" />
        </mxCell>
        <mxCell id="m634XsXhEQVuQhrbfc_O-15" value="赡养人数2.2" style="rounded=0;whiteSpace=wrap;html=1;labelBackgroundColor=default;fontColor=default;strokeColor=default;fillColor=default;" vertex="1" parent="m634XsXhEQVuQhrbfc_O-1">
          <mxGeometry x="380" y="302.5" width="80" height="25" as="geometry" />
        </mxCell>
        <mxCell id="m634XsXhEQVuQhrbfc_O-17" value="工资小于26000 2.3" style="rounded=0;whiteSpace=wrap;html=1;labelBackgroundColor=default;fontColor=default;strokeColor=default;fillColor=default;" vertex="1" parent="m634XsXhEQVuQhrbfc_O-1">
          <mxGeometry x="480" y="300" width="110" height="25" as="geometry" />
        </mxCell>
        <mxCell id="m634XsXhEQVuQhrbfc_O-19" value="打印3.2" style="rounded=0;whiteSpace=wrap;html=1;labelBackgroundColor=default;fontColor=default;strokeColor=default;fillColor=default;" vertex="1" parent="m634XsXhEQVuQhrbfc_O-1">
          <mxGeometry x="717" y="290" width="110" height="30" as="geometry" />
        </mxCell>
        <mxCell id="m634XsXhEQVuQhrbfc_O-21" value="更新数据3.1" style="rounded=0;whiteSpace=wrap;html=1;labelBackgroundColor=default;fontColor=default;strokeColor=default;fillColor=default;" vertex="1" parent="m634XsXhEQVuQhrbfc_O-1">
          <mxGeometry x="610" y="295" width="80" height="30" as="geometry" />
        </mxCell>
      </root>
    </mxGraphModel>
  </diagram>
</mxfile>
